<svg xmlns="http://www.w3.org/2000/svg" width="98.132" height="83.505" viewBox="0 0 98.132 83.505">
  <g id="Group_3110" data-name="Group 3110" transform="translate(2.402 -0.852)">
    <g id="Group_3102" data-name="Group 3102" transform="matrix(0.996, -0.087, 0.087, 0.996, 0, 7.58)">
      <g id="Group_721" data-name="Group 721" transform="translate(10.152 9.936)">
        <g id="Group_720" data-name="Group 720" transform="translate(0 0)">
          <path id="Path_303" data-name="Path 303" d="M1.919,24.037,3.653,21.3a2.954,2.954,0,0,0-.913-4.065L0,15.5a16.193,16.193,0,0,1,.677-3.9l3.162-.711a2.954,2.954,0,0,0,2.227-3.52L5.355,4.2A16.213,16.213,0,0,1,8.59,1.921l2.741,1.734a2.954,2.954,0,0,0,4.063-.914L17.129,0h0a16.225,16.225,0,0,1,3.9.677l.711,3.162a2.955,2.955,0,0,0,3.52,2.228l3.162-.712A16.225,16.225,0,0,1,30.706,8.59l-1.734,2.742a2.954,2.954,0,0,0,.914,4.064l2.742,1.735a16.269,16.269,0,0,1-.678,3.9l-3.162.711a2.954,2.954,0,0,0-2.227,3.52l.711,3.162a16.213,16.213,0,0,1-3.235,2.281L21.3,28.972a2.955,2.955,0,0,0-4.065.914L15.5,32.626a16.222,16.222,0,0,1-3.9-.677l-.712-3.162L7.17,26.933" fill="none" stroke="#fff" stroke-linecap="round" stroke-miterlimit="10" stroke-width="4"/>
        </g>
        <circle id="Ellipse_2392" data-name="Ellipse 2392" cx="4.468" cy="4.468" r="4.468" transform="translate(11.73 12.023)" fill="none" stroke="#fff" stroke-linecap="round" stroke-miterlimit="10" stroke-width="4"/>
      </g>
      <path id="Path_1317" data-name="Path 1317" d="M0,23.114a26.485,26.485,0,0,1,49.686-9,26.3,26.3,0,0,1,2.207,5.679" transform="translate(0 0)" fill="none" stroke="#fff" stroke-linecap="round" stroke-miterlimit="10" stroke-width="4"/>
      <path id="Path_1318" data-name="Path 1318" d="M52.59,0A26.478,26.478,0,0,1,26.111,26.478,26.485,26.485,0,0,1,0,4.417" transform="translate(0.155 26.479)" fill="none" stroke="#fff" stroke-linecap="round" stroke-miterlimit="10" stroke-width="4"/>
      <path id="Path_1319" data-name="Path 1319" d="M16.875,24.112,2.33,11.7A6.644,6.644,0,0,1,10.957,1.59l21.79,18.6A6.644,6.644,0,0,1,24.12,30.3l-2.272-1.939" transform="translate(51.891 47.548)" fill="none" stroke="#fff" stroke-linecap="round" stroke-miterlimit="10" stroke-width="4"/>
      <line id="Line_88" data-name="Line 88" x2="6.406" y2="5.603" transform="translate(44.773 47.263)" fill="none" stroke="#fff" stroke-linecap="round" stroke-miterlimit="10" stroke-width="4"/>
      <path id="Path_1320" data-name="Path 1320" d="M0,0,6.311,5.279" transform="translate(48.759 42.707)" fill="none" stroke="#fff" stroke-linecap="round" stroke-width="4"/>
    </g>
  </g>
</svg>
