<svg xmlns="http://www.w3.org/2000/svg" width="80.456" height="91.81" viewBox="0 0 80.456 91.81">
  <g id="Group_2721" data-name="Group 2721" transform="translate(2 2)">
    <g id="Group_2719" data-name="Group 2719" transform="translate(0 16.346)">
      <path id="Path_1339" data-name="Path 1339" d="M985.811,788.972a35.533,35.533,0,0,0,5.438-12.722" transform="translate(-918.058 -733.105)" fill="none" stroke="#fff" stroke-linecap="round" stroke-miterlimit="10" stroke-width="4"/>
      <path id="Path_1340" data-name="Path 1340" d="M900.983,776.23c-.008.008,0,.008,0,.008A35.743,35.743,0,0,0,958.6,796.472" transform="translate(-897.721 -733.1)" fill="none" stroke="#fff" stroke-linecap="round" stroke-miterlimit="10" stroke-width="4"/>
      <path id="Path_1341" data-name="Path 1341" d="M922.155,724.881A35.75,35.75,0,0,1,972.2,737.769" transform="translate(-902.797 -719.5)" fill="none" stroke="#fff" stroke-linecap="round" stroke-miterlimit="10" stroke-width="4"/>
      <path id="Path_1342" data-name="Path 1342" d="M905.964,741.18a35.818,35.818,0,0,1,5.567-7.454" transform="translate(-898.916 -722.91)" fill="none" stroke="#fff" stroke-linecap="round" stroke-miterlimit="10" stroke-width="4"/>
      <g id="Group_2718" data-name="Group 2718" transform="translate(0 17.297)">
        <path id="Path_1343" data-name="Path 1343" d="M946.831,742.252h-38.4a11.737,11.737,0,0,0-11.735,11.735v5.988a11.737,11.737,0,0,0,11.735,11.735h18.321" transform="translate(-896.693 -742.252)" fill="none" stroke="#fff" stroke-linecap="round" stroke-miterlimit="10" stroke-width="4"/>
        <path id="Path_1344" data-name="Path 1344" d="M957.724,771.711h18.328a11.732,11.732,0,0,0,11.728-11.735v-5.988a11.731,11.731,0,0,0-11.728-11.735h-8.1" transform="translate(-911.324 -742.252)" fill="none" stroke="#fff" stroke-linecap="round" stroke-miterlimit="10" stroke-width="4"/>
        <path id="Path_1345" data-name="Path 1345" d="M952.568,778.309c.008-.114.008-.235.008-.356a8.179,8.179,0,1,0-16.358,0c0,.121,0,.242.007.356" transform="translate(-906.168 -748.85)" fill="none" stroke="#fff" stroke-linecap="round" stroke-miterlimit="10" stroke-width="4"/>
      </g>
      <path id="Path_1346" data-name="Path 1346" d="M920.558,762.15a4.21,4.21,0,0,1,8.094,0" transform="translate(-902.414 -728.994)" fill="none" stroke="#fff" stroke-linecap="round" stroke-miterlimit="10" stroke-width="4"/>
      <path id="Path_1347" data-name="Path 1347" d="M959.844,762.15a4.21,4.21,0,0,1,8.094,0" transform="translate(-911.833 -728.994)" fill="none" stroke="#fff" stroke-linecap="round" stroke-miterlimit="10" stroke-width="4"/>
      <path id="Path_1348" data-name="Path 1348" d="M927.524,787" transform="translate(-904.084 -735.682)" fill="none" stroke="#fff" stroke-linecap="round" stroke-miterlimit="10" stroke-width="4"/>
      <path id="Path_1349" data-name="Path 1349" d="M954.989,793.74a14.617,14.617,0,0,1-24.265-.759" transform="translate(-904.852 -737.116)" fill="none" stroke="#fff" stroke-linecap="round" stroke-miterlimit="10" stroke-width="4"/>
      <path id="Path_1350" data-name="Path 1350" d="M966.524,787" transform="translate(-913.434 -735.682)" fill="none" stroke="#fff" stroke-linecap="round" stroke-miterlimit="10" stroke-width="4"/>
    </g>
    <g id="Group_2720" data-name="Group 2720" transform="translate(14.28)">
      <line id="Line_91" data-name="Line 91" y1="6.842" transform="translate(23.948)" fill="none" stroke="#fff" stroke-linecap="round" stroke-miterlimit="10" stroke-width="4"/>
      <line id="Line_92" data-name="Line 92" y1="5.322" x2="5.322" transform="translate(42.575 6.842)" fill="none" stroke="#fff" stroke-linecap="round" stroke-miterlimit="10" stroke-width="4"/>
      <line id="Line_93" data-name="Line 93" x1="5.322" y1="5.322" transform="translate(0 6.842)" fill="none" stroke="#fff" stroke-linecap="round" stroke-miterlimit="10" stroke-width="4"/>
    </g>
  </g>
</svg>
