<svg xmlns="http://www.w3.org/2000/svg" width="122.088" height="52.796" viewBox="0 0 122.088 52.796">
  <g id="Group_2717" data-name="Group 2717" transform="translate(2 3.388)">
    <path id="Path_1330" data-name="Path 1330" d="M870.307,657.73l-2.252,3.378,5.787-1.158-3.057,16.906,12.534-18.8-5.787,1.158,3.057-16.906L869.3,659.212" transform="translate(-816.643 -636.58)" fill="#fff" stroke="#fff" stroke-linecap="round" stroke-miterlimit="10" stroke-width="4"/>
    <path id="Path_1331" data-name="Path 1331" d="M826.5,679.532h-8.741c-6.493,0-11.757-6.621-11.757-14.79s5.264-14.789,11.757-14.789h24.461" transform="translate(-806 -642.88)" fill="none" stroke="#fff" stroke-linecap="round" stroke-miterlimit="10" stroke-width="4"/>
    <path id="Path_1332" data-name="Path 1332" d="M830.721,687.776" transform="translate(-811.388 -651.124)" fill="none" stroke="#00a551" stroke-linecap="round" stroke-miterlimit="10" stroke-width="4"/>
    <line id="Line_89" data-name="Line 89" x1="8.903" transform="translate(29.763 36.652)" fill="none" stroke="#fff" stroke-linecap="round" stroke-miterlimit="10" stroke-width="4"/>
    <path id="Path_1333" data-name="Path 1333" d="M847.965,640.908v14.146l7.073-7.073Z" transform="translate(-815.147 -640.908)" fill="#fff" stroke="#fff" stroke-width="1"/>
    <path id="Path_1334" data-name="Path 1334" d="M944.6,680.119c-2.142,3.632-5.577,5.988-9.449,5.988H910.687" transform="translate(-828.818 -649.455)" fill="none" stroke="#fff" stroke-linecap="round" stroke-miterlimit="10" stroke-width="4"/>
    <path id="Path_1335" data-name="Path 1335" d="M956.086,675.373" transform="translate(-838.713 -648.42)" fill="none" stroke="#00a551" stroke-linecap="round" stroke-miterlimit="10" stroke-width="4"/>
    <path id="Path_1336" data-name="Path 1336" d="M956.7,672.676" transform="translate(-838.846 -647.833)" fill="none" stroke="#00a551" stroke-linecap="round" stroke-miterlimit="10" stroke-width="4"/>
    <path id="Path_1337" data-name="Path 1337" d="M928.567,649.953h10.478c6.493,0,11.757,6.622,11.757,14.789" transform="translate(-832.715 -642.88)" fill="none" stroke="#fff" stroke-linecap="round" stroke-miterlimit="10" stroke-width="4"/>
    <line id="Line_90" data-name="Line 90" x2="19.21" transform="translate(79.421 7.073)" fill="none" stroke="#fff" stroke-linecap="round" stroke-miterlimit="10" stroke-width="4"/>
    <path id="Path_1338" data-name="Path 1338" d="M913.064,692.878V678.732l-7.073,7.073Z" transform="translate(-827.794 -649.153)" fill="#fff" stroke="#fff" stroke-width="1"/>
  </g>
</svg>
