<svg xmlns="http://www.w3.org/2000/svg" width="74.705" height="88.171" viewBox="0 0 74.705 88.171">
  <g id="Group_3815" data-name="Group 3815" transform="translate(-1017.666 -2505.5)">
    <g id="Group_3716" data-name="Group 3716" transform="translate(-567.66 1603.055)">
      <path id="Path_1501" data-name="Path 1501" d="M1637.058,977.106" transform="translate(-15.645 -13.58)" fill="none" stroke="#fff" stroke-linecap="round" stroke-miterlimit="10" stroke-width="4"/>
      <path id="Path_1502" data-name="Path 1502" d="M1636.032,964.7" transform="translate(-15.514 -11.993)" fill="none" stroke="#fff" stroke-linecap="round" stroke-miterlimit="10" stroke-width="4"/>
      <g id="Group_3713" data-name="Group 3713" transform="translate(1587.326 924.726)">
        <g id="Group_3712" data-name="Group 3712" transform="translate(0 0)">
          <path id="Path_1503" data-name="Path 1503" d="M1620.853,966.043l-.061-28.71c-.01-4.425-3.141-8.005-6.994-8h0c-3.853.008-6.969,3.6-6.959,8.026l.073,33.846-2.887,2.775-1.284,1.234-2.219,2.134h0" transform="translate(-1599.855 -929.336)" fill="none" stroke="#fff" stroke-linecap="round" stroke-miterlimit="10" stroke-width="4"/>
          <path id="Path_1504" data-name="Path 1504" d="M1630.308,979.175l.013,6.406-12.432,13.194" transform="translate(-1601.859 -935.713)" fill="none" stroke="#fff" stroke-linecap="round" stroke-miterlimit="10" stroke-width="4"/>
          <path id="Path_1505" data-name="Path 1505" d="M1633.856,972.425" transform="translate(-1605.419 -934.849)" fill="none" stroke="#fff" stroke-linecap="round" stroke-miterlimit="10" stroke-width="4"/>
          <path id="Path_1506" data-name="Path 1506" d="M1628.418,956.312h0a4.712,4.712,0,0,1,4.722,4.7l.012,5.916" transform="translate(-1604.724 -932.788)" fill="none" stroke="#fff" stroke-linecap="round" stroke-miterlimit="10" stroke-width="4"/>
        </g>
        <path id="Path_1513" data-name="Path 1513" d="M0,0" transform="translate(25.257 20.668)" fill="none" stroke="#fff" stroke-linecap="round" stroke-width="4"/>
      </g>
      <g id="Group_3715" data-name="Group 3715" transform="translate(1628.27 924.648)">
        <g id="Group_3714" data-name="Group 3714">
          <path id="Path_1507" data-name="Path 1507" d="M1667.338,961.632l.029,13.6,6.5,6.574" transform="translate(-1644.932 -933.39)" fill="none" stroke="#fff" stroke-linecap="round" stroke-miterlimit="10" stroke-width="4"/>
          <path id="Path_1508" data-name="Path 1508" d="M1667.332,958.822" transform="translate(-1644.931 -933.03)" fill="none" stroke="#fff" stroke-linecap="round" stroke-miterlimit="10" stroke-width="4"/>
          <path id="Path_1509" data-name="Path 1509" d="M1651.35,965.983l-.061-28.71c-.01-4.425,3.106-8.019,6.959-8.026h0c3.853-.009,6.984,3.572,6.994,8l.024,11.792" transform="translate(-1642.878 -929.246)" fill="none" stroke="#fff" stroke-linecap="round" stroke-miterlimit="10" stroke-width="4"/>
          <path id="Path_1510" data-name="Path 1510" d="M1641.644,974.1" transform="translate(-1641.644 -934.985)" fill="none" stroke="#fff" stroke-linecap="round" stroke-miterlimit="10" stroke-width="4"/>
          <path id="Path_1511" data-name="Path 1511" d="M1647.513,956.269h0a4.713,4.713,0,0,0-4.7,4.723l.046,21.642,11.652,12.381" transform="translate(-1641.793 -932.703)" fill="none" stroke="#fff" stroke-linecap="round" stroke-miterlimit="10" stroke-width="4"/>
          <path id="Path_1512" data-name="Path 1512" d="M1642.618,961.685" transform="translate(-1641.769 -933.397)" fill="none" stroke="#fff" stroke-linecap="round" stroke-miterlimit="10" stroke-width="4"/>
        </g>
        <line id="Line_296" data-name="Line 296" y1="0.006" x2="2.724" transform="translate(5.719 23.56)" fill="none" stroke="#fff" stroke-linecap="round" stroke-miterlimit="10" stroke-width="4"/>
      </g>
    </g>
    <line id="Line_333" data-name="Line 333" y1="9.253" transform="translate(1054.8 2507.5)" fill="none" stroke="#fff" stroke-linecap="round" stroke-width="4"/>
    <line id="Line_334" data-name="Line 334" y1="6.729" x2="5.047" transform="translate(1063.211 2511.706)" fill="none" stroke="#fff" stroke-linecap="round" stroke-width="4"/>
    <line id="Line_335" data-name="Line 335" x1="5.047" y1="6.729" transform="translate(1040.5 2511.706)" fill="none" stroke="#fff" stroke-linecap="round" stroke-width="4"/>
  </g>
</svg>
