<svg xmlns="http://www.w3.org/2000/svg" width="47.332" height="80.921" viewBox="0 0 47.332 80.921">
  <g id="Group_2715" data-name="Group 2715" transform="translate(2 2)">
    <path id="Path_1321" data-name="Path 1321" d="M1148.715,530.352" transform="translate(-1106.141 -513.854)" fill="none" stroke="#fff" stroke-linecap="round" stroke-miterlimit="10" stroke-width="4"/>
    <path id="Path_1322" data-name="Path 1322" d="M1149.479,533.742" transform="translate(-1106.407 -515.033)" fill="none" stroke="#fff" stroke-linecap="round" stroke-miterlimit="10" stroke-width="4"/>
    <path id="Path_1323" data-name="Path 1323" d="M1099.423,562.629a19.817,19.817,0,0,1,.556,4.668v3.082h21.516v-3.52a19.728,19.728,0,0,1,4.005-11.931c3.1-4.088,6.872-10.357,6.828-16.651" transform="translate(-1088.996 -516.61)" fill="none" stroke="#fff" stroke-linecap="round" stroke-miterlimit="10" stroke-width="4"/>
    <path id="Path_1324" data-name="Path 1324" d="M1096.926,568.9" transform="translate(-1088.128 -527.262)" fill="none" stroke="#fff" stroke-linecap="round" stroke-miterlimit="10" stroke-width="4"/>
    <path id="Path_1325" data-name="Path 1325" d="M1124.1,516.924c-3.677-6.7-10.786-11.869-19-11.869a21.77,21.77,0,0,0-21.665,21.665c-.043,6.83,3.594,12.844,6.693,16.723q.573.718,1.074,1.483" transform="translate(-1083.435 -505.055)" fill="none" stroke="#fff" stroke-linecap="round" stroke-miterlimit="10" stroke-width="4"/>
    <path id="Path_1326" data-name="Path 1326" d="M1101.991,595.808a4.153,4.153,0,0,1-4.154-4.154h0a4.154,4.154,0,0,1,4.154-4.154h16.24a4.154,4.154,0,0,1,4.154,4.154h0a4.154,4.154,0,0,1-4.154,4.154" transform="translate(-1088.445 -533.732)" fill="none" stroke="#fff" stroke-miterlimit="10" stroke-width="4"/>
    <path id="Path_1327" data-name="Path 1327" d="M1111.313,600.5h6.918a4.154,4.154,0,0,1,4.154,4.154h0a4.154,4.154,0,0,1-4.154,4.154h-16.24a4.153,4.153,0,0,1-4.154-4.154h0a4.154,4.154,0,0,1,4.154-4.154h2.9" transform="translate(-1088.445 -538.253)" fill="none" stroke="#fff" stroke-linecap="round" stroke-miterlimit="10" stroke-width="4"/>
    <path id="Path_1328" data-name="Path 1328" d="M1110.9,523.256l.38,7.739,3.893.893-4.389,9.575-.163-7.6-3.712-.852Z" transform="translate(-1089.684 -505.425)" fill="none" stroke="#fff" stroke-linecap="round" stroke-miterlimit="10" stroke-width="4"/>
    <path id="Path_1329" data-name="Path 1329" d="M1119.091,615a5.217,5.217,0,0,1-10.435,0" transform="translate(-1092.208 -543.297)" fill="none" stroke="#fff" stroke-linecap="round" stroke-miterlimit="10" stroke-width="4"/>
  </g>
</svg>
