<svg xmlns="http://www.w3.org/2000/svg" width="109.225" height="90.91" viewBox="0 0 109.225 90.91">
  <g id="Group_738" data-name="Group 738" transform="translate(2.002 88.907) rotate(-90)">
    <path id="Path_305" data-name="Path 305" d="M8.815,20.9q2.875,4.569,5.753,9.133c4.1,2.09,8.378,4,12.477,6.092a11.707,11.707,0,0,0,4.722,1.6,3.945,3.945,0,0,0,4-2.362c.551-1.809-.823-3.585-2.105-5q-3.069-3.378-6.134-6.759H60.622V58.541H40.4M50.867,23.05a22.308,22.308,0,0,0-8.658-7.909,37.835,37.835,0,0,0-6.461-2.2c-2.523-.748-6.5-1.933-11.555-3.456M4.053,11.773.047,14.75a.112.112,0,0,0-.026.157l0,0,6.119,7.834a.119.119,0,0,0,.165.02L26.133,8.038a.111.111,0,0,0,.026-.156l0,0L20.037.047a.118.118,0,0,0-.165-.024L10.2,7.211M77.982,84.222Q75.1,79.658,72.23,75.091c-4.1-2.091-8.38-4-12.481-6.092a11.692,11.692,0,0,0-4.722-1.6,3.944,3.944,0,0,0-4,2.366c-.553,1.805.82,3.585,2.1,5q3.064,3.383,6.133,6.759H26.173V46.584H46.4M35.925,82.075a22.27,22.27,0,0,0,8.657,7.909,37.4,37.4,0,0,0,6.467,2.2c2.523.748,6.5,1.933,11.553,3.456m20.135-2.288,4.009-2.975a.114.114,0,0,0,.023-.159l0,0-6.118-7.83a.12.12,0,0,0-.167-.024L60.664,97.087a.115.115,0,0,0-.025.161h0l6.117,7.831a.125.125,0,0,0,.168.02L76.6,97.916M52.677,46.856a2.531,2.531,0,1,1-2.594-2.466h.065a2.5,2.5,0,0,1,2.529,2.464ZM74.095,64.531A2.529,2.529,0,1,1,71.5,62.065h.063A2.5,2.5,0,0,1,74.095,64.531ZM16.77,41.29a2.53,2.53,0,1,1-2.592-2.466h.063a2.5,2.5,0,0,1,2.528,2.464ZM39.5,58.1A2.531,2.531,0,1,1,36.9,55.636h.065A2.5,2.5,0,0,1,39.5,58.1Zm32.232-7.7V61.38m-10.981-29.1H71.729V43.139m-57.487,8.74v-7.49M25.565,72.109H14.242V61.38" transform="translate(0 0)" fill="none" stroke="#fff" stroke-linecap="round" stroke-width="4"/>
    <path id="Path_322" data-name="Path 322" d="M8.815,20.9q2.875,4.569,5.753,9.133c4.1,2.09,8.378,4,12.477,6.092a11.707,11.707,0,0,0,4.722,1.6,3.945,3.945,0,0,0,4-2.362c.551-1.809-.823-3.585-2.105-5q-3.069-3.378-6.134-6.759H51.025m-.157-.558a22.309,22.309,0,0,0-8.658-7.909,37.8,37.8,0,0,0-6.461-2.21c-2.523-.748-6.5-1.933-11.555-3.456M4.053,11.773.047,14.75a.112.112,0,0,0-.026.157l0,0,6.119,7.834a.119.119,0,0,0,.165.02L26.133,8.038a.111.111,0,0,0,.026-.156l0,0L20.037.047a.118.118,0,0,0-.165-.024L10.2,7.211M77.982,84.222Q75.1,79.658,72.23,75.091c-4.1-2.091-8.38-4-12.481-6.092a11.692,11.692,0,0,0-4.722-1.6,3.944,3.944,0,0,0-4,2.366c-.553,1.805.82,3.585,2.1,5q3.064,3.383,6.133,6.759H35.925m0,.558a22.272,22.272,0,0,0,8.657,7.91,37.4,37.4,0,0,0,6.467,2.2c2.523.748,6.5,1.933,11.553,3.456m20.135-2.288,4.009-2.975a.114.114,0,0,0,.023-.159l0,0-6.118-7.83a.12.12,0,0,0-.167-.024L60.664,97.087a.115.115,0,0,0-.025.161h0l6.117,7.831a.125.125,0,0,0,.168.02L76.6,97.916" transform="translate(0 0)" fill="none" stroke="#fff" stroke-linecap="round" stroke-width="4"/>
  </g>
</svg>
